<svg width="162" height="48" viewBox="0 0 162 48" fill="none" xmlns="http://www.w3.org/2000/svg"><g clip-path="url(#a)"><path d="M156 0H6a6 6 0 0 0-6 6v36a6 6 0 0 0 6 6h150a6 6 0 0 0 6-6V6a6 6 0 0 0-6-6Z" fill="#000"/><path d="M156 .96A5.04 5.04 0 0 1 161.04 6v36a5.04 5.04 0 0 1-5.04 5.04H6A5.04 5.04 0 0 1 .96 42V6A5.04 5.04 0 0 1 6 .96h150Zm0-.96H6C2.7 0 0 2.7 0 6v36c0 3.3 2.7 6 6 6h150c3.3 0 6-2.7 6-6V6c0-3.3-2.7-6-6-6Z" fill="#A6A6A6"/><path d="M56.904 12.288c0 1.008-.3 1.812-.9 2.4-.672.708-1.548 1.068-2.64 1.068s-1.932-.36-2.652-1.08c-.72-.72-1.08-1.62-1.08-2.676s.36-1.956 1.08-2.676c.72-.72 1.608-1.092 2.652-1.092.528 0 1.032.096 1.5.276.468.192.852.456 1.152.792l-.66.66a2.117 2.117 0 0 0-.864-.624 2.748 2.748 0 0 0-1.128-.228c-.78 0-1.452.276-1.992.816-.54.552-.804 1.236-.804 2.064 0 .828.264 1.512.804 2.064.54.54 1.2.816 1.992.816.72 0 1.308-.204 1.788-.6s.756-.96.828-1.656h-2.616v-.864h3.492c.036.192.048.372.048.54ZM62.436 8.4v.888H59.16v2.28h2.952v.864H59.16v2.28h3.276v.888h-4.2V8.4h4.2Zm3.9.888V15.6h-.924V9.288h-2.016V8.4h4.944v.888h-2.016.012Zm6.516 6.312h-.924V8.4h.924v7.2Zm4.104-6.312V15.6h-.924V9.288h-2.016V8.4h4.944v.888h-2.016.012ZM89.388 12c0 1.068-.36 1.956-1.068 2.676-.72.72-1.596 1.08-2.64 1.08s-1.92-.36-2.64-1.08c-.708-.72-1.068-1.608-1.068-2.676s.36-1.956 1.068-2.676c.708-.72 1.584-1.092 2.64-1.092s1.92.36 2.64 1.092c.708.72 1.068 1.608 1.068 2.664V12Zm-6.456 0c0 .828.264 1.524.78 2.064.528.54 1.188.816 1.968.816s1.44-.276 1.956-.816c.528-.54.792-1.224.792-2.064 0-.84-.264-1.524-.792-2.064S86.46 9.12 85.68 9.12s-1.44.276-1.968.816c-.528.54-.78 1.236-.78 2.064Zm8.676 3.6h-.924V8.4h1.128l3.504 5.604h.036l-.036-1.392V8.4h.924v7.2h-.96l-3.66-5.868h-.036l.036 1.392v4.488l-.012-.012Z" fill="#fff" stroke="#fff" stroke-width=".24" stroke-miterlimit="10"/><path d="M81.768 26.1c-2.82 0-5.124 2.148-5.124 5.1 0 2.952 2.304 5.1 5.124 5.1s5.124-2.16 5.124-5.1c0-2.94-2.304-5.1-5.124-5.1Zm0 8.196c-1.548 0-2.88-1.272-2.88-3.096s1.332-3.096 2.88-3.096c1.548 0 2.88 1.26 2.88 3.096s-1.332 3.096-2.88 3.096ZM70.596 26.1c-2.82 0-5.124 2.148-5.124 5.1 0 2.952 2.304 5.1 5.124 5.1s5.124-2.16 5.124-5.1c0-2.94-2.304-5.1-5.124-5.1Zm0 8.196c-1.548 0-2.88-1.272-2.88-3.096s1.332-3.096 2.88-3.096c1.548 0 2.88 1.26 2.88 3.096s-1.332 3.096-2.88 3.096ZM57.3 27.66v2.16h5.184c-.156 1.212-.564 2.112-1.176 2.724-.756.756-1.932 1.584-3.996 1.584-3.192 0-5.688-2.568-5.688-5.76 0-3.192 2.496-5.76 5.688-5.76 1.716 0 2.976.672 3.9 1.548l1.524-1.524c-1.296-1.236-3.012-2.184-5.436-2.184-4.368 0-8.04 3.552-8.04 7.932 0 4.38 3.672 7.932 8.04 7.932 2.364 0 4.14-.768 5.532-2.22 1.428-1.428 1.872-3.444 1.872-5.064 0-.504-.036-.972-.12-1.356H57.3v-.012Zm54.372 1.68c-.42-1.14-1.716-3.252-4.368-3.252s-4.812 2.064-4.812 5.1c0 2.856 2.16 5.1 5.064 5.1 2.34 0 3.696-1.428 4.248-2.256l-1.74-1.164c-.576.852-1.368 1.416-2.508 1.416s-1.956-.516-2.472-1.548l6.828-2.82-.228-.576h-.012Zm-6.96 1.704c-.06-1.968 1.524-2.976 2.664-2.976.888 0 1.644.444 1.896 1.08l-4.56 1.896Zm-5.544 4.944h2.244v-15h-2.244v15Zm-3.672-8.76h-.072c-.504-.6-1.464-1.14-2.688-1.14-2.556 0-4.896 2.244-4.896 5.124 0 2.88 2.34 5.088 4.896 5.088 1.212 0 2.184-.54 2.688-1.164h.072v.732c0 1.956-1.044 3-2.724 3-1.368 0-2.22-.984-2.568-1.812l-1.956.816c.564 1.356 2.052 3.012 4.524 3.012 2.628 0 4.848-1.548 4.848-5.316V26.4h-2.124v.828Zm-2.568 7.056c-1.548 0-2.844-1.296-2.844-3.072s1.296-3.108 2.844-3.108c1.548 0 2.724 1.32 2.724 3.108s-1.2 3.072-2.724 3.072Zm29.256-13.296h-5.364v15h2.244V30.3h3.132c2.484 0 4.92-1.8 4.92-4.656s-2.436-4.656-4.92-4.656h-.012Zm.06 7.236h-3.18v-5.148h3.18c1.68 0 2.628 1.392 2.628 2.568 0 1.176-.948 2.568-2.628 2.568v.012Zm13.836-2.16c-1.62 0-3.3.72-3.996 2.292l1.992.828c.42-.828 1.212-1.104 2.04-1.104 1.152 0 2.34.696 2.352 1.932v.156c-.408-.228-1.272-.576-2.34-.576-2.148 0-4.32 1.176-4.32 3.372 0 2.004 1.752 3.3 3.72 3.3 1.5 0 2.34-.672 2.856-1.464h.072v1.152h2.16v-5.748c0-2.664-1.992-4.152-4.56-4.152l.024.012Zm-.276 8.22c-.732 0-1.752-.372-1.752-1.272 0-1.152 1.272-1.596 2.376-1.596.984 0 1.452.216 2.04.504a2.708 2.708 0 0 1-2.664 2.376v-.012Zm12.696-7.896-2.568 6.504h-.072l-2.664-6.504h-2.412l3.996 9.096-2.28 5.052h2.34l6.156-14.148H148.5Zm-20.172 9.6h2.244v-15h-2.244v15Z" fill="#fff"/><path d="m24.864 23.304-12.78 13.56a3.453 3.453 0 0 0 3.336 2.556c.636 0 1.236-.168 1.752-.48l.036-.024 14.376-8.292-6.732-7.332.012.012Z" fill="#EA4335"/><path d="M37.788 21h-.012l-6.204-3.612-6.996 6.228 7.02 7.02 6.18-3.564a3.457 3.457 0 0 0 1.812-3.036c0-1.308-.72-2.448-1.8-3.024V21Z" fill="#FBBC04"/><path d="M12.084 11.136c-.072.288-.12.576-.12.888v23.964c0 .312.036.6.12.888l13.212-13.212-13.212-12.528Z" fill="#4285F4"/><path d="m24.96 24 6.612-6.612L17.208 9.06a3.466 3.466 0 0 0-5.124 2.064L24.96 23.988V24Z" fill="#34A853"/></g><defs><clipPath id="a"><path fill="#fff" d="M0 0h162v48H0z"/></clipPath></defs></svg>